<?xml version="1.0" encoding="UTF-8"?>
<svg version="1.1" xmlns="http://www.w3.org/2000/svg" width="512" height="512">
<path d="M0 0 C2.02256504 1.85460116 4.09265234 3.62066411 6.1953125 5.3828125 C15.78165549 13.77327367 23.7941266 23.79613387 31.2578125 34.0703125 C32.03511719 35.12863281 32.81242187 36.18695313 33.61328125 37.27734375 C61.74731574 76.83704092 72.34483081 122.4096305 72.45068359 170.17163086 C72.45859916 172.18496843 72.46686897 174.19830462 72.47546387 176.2116394 C72.50147933 182.77779827 72.5169541 189.34396294 72.53125 195.91015625 C72.53661497 198.17725693 72.54199249 200.44435758 72.54738235 202.71145821 C72.56896599 212.13525689 72.58770679 221.55905399 72.59900475 230.98287106 C72.61528428 244.46825153 72.64861048 257.95334594 72.70540559 271.4386186 C72.74404927 280.93779855 72.76362984 290.43690173 72.76892531 299.93615824 C72.77258153 305.60532982 72.7846354 311.27419479 72.81702805 316.94328117 C72.8470164 322.26632952 72.85345356 327.58888403 72.84164429 332.91199875 C72.84142289 334.86595943 72.84978199 336.81994251 72.86729813 338.77382469 C72.88989356 341.43888162 72.88174089 344.10213206 72.86581421 346.76719666 C72.8796963 347.54209141 72.89357838 348.31698617 72.90788114 349.11536258 C72.85053301 353.00287886 72.38400343 354.90040691 70.04277992 358.05266953 C67.01412418 360.24685892 65.76655235 360.68747879 62.09033203 360.65571594 C60.56051193 360.66130524 60.56051193 360.66130524 58.99978638 360.66700745 C57.89126312 360.64581345 56.78273987 360.62461945 55.640625 360.6027832 C53.8759639 360.59923325 53.8759639 360.59923325 52.07565308 360.59561157 C48.85109097 360.58568294 45.62751727 360.55418565 42.40319824 360.51575875 C39.00710434 360.48270358 35.61107161 360.48442812 32.21484375 360.48442078 C21.38128579 360.4780122 10.5481434 360.41810024 -0.28505516 360.33148688 C-7.39339597 360.27486422 -14.50100851 360.24217755 -21.60959435 360.25192326 C-24.97756962 360.25499365 -28.34252641 360.23792554 -31.71038818 360.19210243 C-47.92449947 359.97294256 -60.9375331 361.27492504 -75.72177124 368.17224216 C-80.09721373 370.11711619 -84.72960864 371.24813271 -89.3671875 372.3828125 C-90.31174805 372.62153076 -91.25630859 372.86024902 -92.22949219 373.10620117 C-148.83605691 386.99199468 -209.40050036 377.71602392 -259.2421875 347.5703125 C-266.80121336 342.87272421 -273.88198014 337.73945318 -280.7421875 332.0703125 C-281.30357422 331.61043945 -281.86496094 331.15056641 -282.44335938 330.67675781 C-327.10269726 293.90872991 -355.55326299 242.13663196 -361.79248047 184.46142578 C-363.93826149 161.8248346 -362.88018839 139.41684906 -358.3046875 117.1328125 C-358.09948486 116.1322583 -357.89428223 115.1317041 -357.68286133 114.10083008 C-354.69740209 100.37378889 -354.69740209 100.37378889 -349.7421875 97.0703125 C-347.28909302 96.80288696 -347.28909302 96.80288696 -344.34033203 96.77978516 C-343.23553497 96.76702545 -342.13073792 96.75426575 -340.99246216 96.74111938 C-339.79869965 96.73889374 -338.60493713 96.73666809 -337.375 96.734375 C-335.53468704 96.7243898 -335.53468704 96.7243898 -333.65719604 96.71420288 C-331.059728 96.70406934 -328.46223389 96.69938608 -325.86474609 96.69970703 C-321.88986284 96.69533743 -317.9160927 96.65903237 -313.94140625 96.62109375 C-311.41927464 96.61522511 -308.89713774 96.61125604 -306.375 96.609375 C-305.18528595 96.59500397 -303.9955719 96.58063293 -302.76980591 96.56582642 C-294.58651361 96.61114534 -294.58651361 96.61114534 -290.48339844 98.8425293 C-288.02043273 101.99375786 -288.16510151 103.7033042 -288.38769531 107.56396484 C-289.01224752 111.97970381 -290.27499244 116.13920475 -291.6171875 120.3828125 C-293.87739487 127.90786538 -295.86318543 135.23920311 -296.7421875 143.0703125 C-296.85175781 144.03710938 -296.96132813 145.00390625 -297.07421875 146 C-300.9911445 186.21377103 -289.06367951 226.55973011 -263.7421875 258.0703125 C-237.01095186 289.8875797 -199.77986885 309.79205808 -158.3671875 313.859375 C-117.41251304 317.15037563 -77.36199703 304.06282865 -46.05126953 277.64355469 C-14.97379944 250.87171659 4.05268935 213.00300677 7.13330078 172.07910156 C9.66300526 131.26653605 -4.22998321 91.99363825 -30.7421875 61.0703125 C-31.46277344 60.214375 -32.18335938 59.3584375 -32.92578125 58.4765625 C-38.31996362 52.24584917 -44.20816253 47.07761119 -50.7421875 42.0703125 C-51.61746094 41.39097656 -52.49273437 40.71164063 -53.39453125 40.01171875 C-70.64072435 27.02009311 -89.893061 18.37690561 -110.7421875 13.0703125 C-111.44053711 12.88952148 -112.13888672 12.70873047 -112.85839844 12.52246094 C-140.51233937 5.73381658 -179.19276242 7.28952632 -204.31784058 21.53016663 C-214.38792669 27.00562581 -223.46511967 26.90252144 -234.68359375 26.76171875 C-236.58356951 26.75813448 -238.48355067 26.75678574 -240.38352966 26.7575531 C-244.33814434 26.75289211 -248.29193124 26.72827068 -252.24633789 26.68774414 C-257.31384687 26.63646206 -262.38045915 26.62531186 -267.44819736 26.62757969 C-271.3592941 26.62676471 -275.27019506 26.61032844 -279.18122673 26.58857536 C-281.0507249 26.5790404 -282.92024515 26.573119 -284.78976631 26.57089424 C-287.39351567 26.56439395 -289.99630948 26.5381531 -292.59985352 26.50610352 C-293.75389175 26.50814285 -293.75389175 26.50814285 -294.9312439 26.51022339 C-298.08824956 26.45335714 -300.38588998 26.26258965 -303.18858337 24.75010681 C-305.72400257 22.00875032 -305.7421875 19.7282069 -305.7421875 16.0703125 C-302.83158939 10.82976591 -298.86473413 6.99404492 -294.4921875 2.9453125 C-293.78618408 2.29006592 -293.08018066 1.63481934 -292.3527832 0.9597168 C-220.3048124 -64.86909043 -109.354973 -74.17995853 0 0 Z M-182.7421875 -35.9296875 C-183.4959668 -35.78515137 -184.24974609 -35.64061523 -185.02636719 -35.49169922 C-217.45538832 -29.01593494 -251.70158238 -14.11892312 -275.7421875 9.0703125 C-275.7421875 9.4003125 -275.7421875 9.7303125 -275.7421875 10.0703125 C-268.06025585 10.24959552 -260.37887435 10.37112984 -252.6953125 10.45483398 C-250.08833661 10.48977184 -247.48149516 10.53734008 -244.875 10.59838867 C-229.33957675 10.9528203 -217.42045991 10.62935778 -203.7421875 3.0703125 C-200.47692573 1.80275957 -197.17085382 0.78325709 -193.8046875 -0.1796875 C-192.97332275 -0.42291748 -192.14195801 -0.66614746 -191.28540039 -0.91674805 C-183.1953127 -3.21072231 -175.06333537 -4.76211283 -166.7421875 -5.9296875 C-165.83082031 -6.06117187 -164.91945312 -6.19265625 -163.98046875 -6.328125 C-120.90542054 -11.33213374 -75.58292235 1.30749262 -41.4921875 28.0703125 C-36.43551489 32.25115619 -31.54015616 36.5957179 -26.7421875 41.0703125 C-25.94039063 41.80636719 -25.13859375 42.54242188 -24.3125 43.30078125 C5.23397556 71.47849037 22.22994007 113.64967937 23.5390625 154.1015625 C24.31766367 195.15114667 13.2731122 234.76598903 -12.7421875 267.0703125 C-13.22445801 267.67214355 -13.70672852 268.27397461 -14.20361328 268.89404297 C-29.05685416 287.24619972 -46.76977276 301.24971685 -67.7421875 312.0703125 C-68.36061523 312.38983887 -68.97904297 312.70936523 -69.61621094 313.03857422 C-105.08819553 331.07629525 -147.12349544 335.07049408 -185.7421875 326.0703125 C-186.52432617 325.88839355 -187.30646484 325.70647461 -188.11230469 325.51904297 C-199.5520059 322.7374207 -210.17070984 318.19060782 -220.7421875 313.0703125 C-221.40492676 312.75191406 -222.06766602 312.43351562 -222.75048828 312.10546875 C-262.44298127 292.77555552 -291.28879482 256.84773847 -305.62207031 215.53417969 C-316.87425438 181.44019175 -315.17419142 147.75299747 -307.7421875 113.0703125 C-318.3021875 113.0703125 -328.8621875 113.0703125 -339.7421875 113.0703125 C-341.52913217 117.53767417 -342.51959885 121.6263962 -343.3046875 126.3203125 C-343.43037109 127.03316406 -343.55605469 127.74601563 -343.68554688 128.48046875 C-344.06297363 130.67389128 -344.4101043 132.86958686 -344.7421875 135.0703125 C-344.89228271 136.0435144 -344.89228271 136.0435144 -345.04541016 137.03637695 C-351.91005064 188.65723651 -336.60339023 242.04363591 -305.32299805 283.29418945 C-300.46798735 289.56022838 -295.25585582 295.37721633 -289.7421875 301.0703125 C-289.24106445 301.5972168 -288.73994141 302.12412109 -288.22363281 302.66699219 C-252.24389581 340.44011172 -201.7053461 361.54969535 -149.7421875 363.0703125 C-97.66774861 363.98030269 -46.13759976 344.7993823 -8.3359375 308.77734375 C-6.44566524 306.89765137 -4.59025675 304.99133185 -2.7421875 303.0703125 C-1.93910156 302.26851563 -1.13601563 301.46671875 -0.30859375 300.640625 C26.85976301 273.4309161 44.30863889 238.54790734 52.2578125 201.0703125 C52.52247314 199.86036621 52.52247314 199.86036621 52.79248047 198.62597656 C63.19197447 148.80322728 50.78111237 93.97909174 23.2578125 51.6953125 C15.77099418 40.92926776 7.70377702 30.98246902 -1.36083984 21.51464844 C-2.58726789 20.23229632 -3.80048237 18.93733589 -5.01171875 17.640625 C-38.25938314 -17.0257709 -88.9704665 -38.09748462 -136.7265625 -39.1328125 C-152.28441625 -39.28873086 -167.41005295 -38.86996791 -182.7421875 -35.9296875 Z M54.2578125 247.0703125 C53.73574219 248.23304688 53.21367187 249.39578125 52.67578125 250.59375 C45.00634754 267.39042905 35.97034815 282.77519912 24.2578125 297.0703125 C23.83564453 297.59399414 23.41347656 298.11767578 22.97851562 298.65722656 C9.35507876 315.52775327 -6.16328126 329.13707899 -23.828125 341.609375 C-24.45976562 342.09148437 -25.09140625 342.57359375 -25.7421875 343.0703125 C-25.7421875 343.4003125 -25.7421875 343.7303125 -25.7421875 344.0703125 C0.9878125 344.0703125 27.7178125 344.0703125 55.2578125 344.0703125 C55.2578125 312.0603125 55.2578125 280.0503125 55.2578125 247.0703125 C54.9278125 247.0703125 54.5978125 247.0703125 54.2578125 247.0703125 Z " fill="#000000" transform="translate(413.7421875,92.9296875)"/>
<path d="M0 0 C1.12557312 -0.00700928 2.25114624 -0.01401855 3.41082764 -0.02124023 C7.13611428 -0.03886347 10.86064296 -0.02718133 14.5859375 -0.01367188 C17.17138821 -0.01636552 19.75683792 -0.02024688 22.34228516 -0.02526855 C27.76280283 -0.03116952 33.18303496 -0.022962 38.60351562 -0.00390625 C44.86801188 0.0178625 51.13198739 0.01081098 57.39647102 -0.01121187 C63.42574377 -0.03155849 69.45476196 -0.02939558 75.48406982 -0.01768494 C78.04856438 -0.01501312 80.61307219 -0.01830329 83.17755127 -0.02760315 C86.75935266 -0.03774109 90.34014866 -0.02230447 93.921875 0 C94.98589539 -0.00809692 96.04991577 -0.01619385 97.1461792 -0.02453613 C104.29662189 0.05811941 104.29662189 0.05811941 107.49627686 2.27108765 C108.93430728 4.4767328 110.26016067 6.62142129 111.43457031 8.97900391 C112.09480194 10.29023727 112.09480194 10.29023727 112.76837158 11.62796021 C113.22894958 12.56348724 113.68952759 13.49901428 114.1640625 14.46289062 C114.6467157 15.42911346 115.1293689 16.3953363 115.62664795 17.39083862 C116.64226591 19.42810397 117.65400467 21.46730719 118.66210938 23.50830078 C120.21083464 26.64236997 121.77235294 29.76980633 123.3359375 32.89648438 C124.32107006 34.87657641 125.30547069 36.85703279 126.2890625 38.83789062 C126.75773743 39.77746613 127.22641235 40.71704163 127.70928955 41.68508911 C128.13683533 42.55294037 128.5643811 43.42079163 129.00488281 44.31494141 C129.57302704 45.46266525 129.57302704 45.46266525 130.15264893 46.63357544 C130.9609375 48.51757812 130.9609375 48.51757812 130.9609375 50.51757812 C132.54017942 50.51204737 132.54017942 50.51204737 134.15132523 50.50640488 C159.74742692 50.41767842 185.3435087 50.35190926 210.9397316 50.31032944 C223.31778675 50.28968823 235.69574044 50.2615378 248.07373047 50.21582031 C258.86009689 50.17600034 269.64638983 50.15015666 280.43282771 50.14122415 C286.146262 50.13600122 291.85948606 50.12369295 297.57285309 50.0946579 C302.94738422 50.06756535 308.32161793 50.05912069 313.69621086 50.0651474 C315.67154238 50.0640444 317.64688355 50.05605403 319.62215614 50.04075623 C322.3142482 50.02092467 325.00520975 50.02561378 327.69732666 50.03656006 C328.48331969 50.02490869 329.26931273 50.01325733 330.07912374 50.00125289 C333.57450822 50.03980635 335.57455457 50.23027039 338.4173069 52.34409237 C340.64916342 55.48662424 340.92156348 57.66935633 340.9609375 61.51757812 C340.1595226 64.32580476 338.9109199 66.81963375 337.57373047 69.40893555 C337.20151871 70.16431107 336.82930695 70.91968658 336.44581604 71.69795227 C335.21581759 74.18218467 333.96032817 76.65248507 332.703125 79.12304688 C331.83805729 80.85162548 330.97423468 82.58082771 330.11160278 84.31062317 C328.30181954 87.92992084 326.47981919 91.54270801 324.6484375 95.15112305 C322.3043625 99.77121236 319.98709481 104.40411836 317.6783123 109.04192638 C315.89790668 112.61277368 314.10556462 116.17751952 312.3093605 119.74044228 C311.45059581 121.44644407 310.59504228 123.15406628 309.74279404 124.86333275 C308.54843087 127.2531747 307.33873393 129.63460416 306.12451172 132.0144043 C305.77623825 132.71838348 305.42796478 133.42236267 305.06913757 134.14767456 C302.91239593 138.32491914 300.86426226 140.91147647 296.9609375 143.51757812 C294.25131989 144.02094269 294.25131989 144.02094269 291.26818848 144.0255127 C290.13263016 144.03679199 288.99707184 144.04807129 287.82710266 144.05969238 C286.59058456 144.05159546 285.35406647 144.04349854 284.08007812 144.03515625 C282.11593208 144.04567017 282.11593208 144.04567017 280.11210632 144.05639648 C276.52731914 144.07460693 272.94299325 144.0675721 269.35819817 144.05488014 C265.60357308 144.0447405 261.84898702 144.05414849 258.09436035 144.0604248 C251.78956016 144.06769843 245.48494749 144.05812111 239.18017578 144.0390625 C231.89494056 144.01729413 224.61015313 144.02434572 217.32492876 144.04636812 C211.06573931 144.06453036 204.80668453 144.06707647 198.54747725 144.05661345 C194.81098054 144.05038298 191.07469419 144.04953039 187.33821106 144.0627594 C183.17247066 144.07647844 179.00750008 144.05745492 174.84179688 144.03515625 C173.60527878 144.04325317 172.36876068 144.0513501 171.09477234 144.05969238 C169.95921402 144.04841309 168.8236557 144.03713379 167.65368652 144.0255127 C166.66925316 144.02400459 165.68481979 144.02249649 164.67055511 144.02094269 C161.11823752 143.36103009 159.52311251 142.03710261 156.9609375 139.51757812 C155.39303875 137.1200676 155.39303875 137.1200676 154.04386902 134.40496826 C153.26366394 132.85693008 153.26366394 132.85693008 152.46769714 131.27761841 C151.91527847 130.15120941 151.3628598 129.02480042 150.79370117 127.86425781 C150.19301769 126.66119702 149.59127454 125.45866482 148.98855591 124.25662231 C147.36034495 121.0019181 145.74701399 117.74004055 144.13629317 114.4766531 C142.44862201 111.06374038 140.74730689 107.65764316 139.04743958 104.25079346 C135.83280998 97.80290416 132.63046252 91.34899631 129.432504 84.89282537 C125.79020343 77.54110259 122.13423057 70.19621003 118.47710454 62.85185385 C110.95649776 47.74796669 103.45306919 32.63560959 95.9609375 17.51757812 C94.64406448 17.5139325 93.32719147 17.51028687 91.97041321 17.50653076 C79.56611172 17.46960542 67.16205905 17.41185947 54.75794697 17.33367538 C48.38069433 17.29414967 42.00358084 17.26198604 35.6262207 17.24658203 C29.47283514 17.23144924 23.31983198 17.19706321 17.16661644 17.1492691 C14.81789662 17.13442052 12.46912221 17.12653513 10.12035561 17.12569427 C6.83283234 17.12333342 3.54637345 17.09632325 0.2590332 17.06347656 C-0.7141687 17.06850693 -1.68737061 17.07353729 -2.69006348 17.07872009 C-7.00443458 17.01193461 -9.40104474 16.90995066 -13.14338684 14.60845947 C-15.19087097 12.3501373 -15.70114257 11.51669542 -15.6015625 8.51757812 C-15.60285156 7.85757813 -15.60414062 7.19757813 -15.60546875 6.51757812 C-13.44589169 -1.10796293 -6.51066372 -0.04954449 0 0 Z M139.9609375 66.51757812 C141.36384399 70.72629761 142.69638568 74.23729206 144.65063477 78.13989258 C145.45640709 79.75605217 145.45640709 79.75605217 146.27845764 81.40486145 C146.85559006 82.55194077 147.43272247 83.69902008 148.02734375 84.88085938 C148.62772852 86.08043547 149.22781645 87.28016016 149.82762146 88.48002625 C151.08011614 90.98345759 152.33527272 93.48552912 153.5925293 95.98657227 C155.20629057 99.19702499 156.81470808 102.41011818 158.4213419 105.62414265 C159.65761186 108.09641127 160.89595994 110.56763393 162.13502312 113.03850365 C163.01827677 114.80027404 163.90032664 116.56264776 164.78236389 118.32502747 C165.31639328 119.38670639 165.85042267 120.44838531 166.40063477 121.54223633 C166.87203384 122.48122269 167.34343292 123.42020905 167.82911682 124.38764954 C168.78728727 126.44146476 168.78728727 126.44146476 169.9609375 127.51757812 C171.50446881 127.61342811 173.05238858 127.63945883 174.59889221 127.63783264 C175.60155121 127.63920731 176.60421021 127.64058197 177.63725281 127.64199829 C178.74639542 127.63840302 179.85553802 127.63480774 180.99829102 127.63110352 C182.7395224 127.63132256 182.7395224 127.63132256 184.51593018 127.63154602 C188.37392002 127.63084629 192.23186228 127.62305111 196.08984375 127.61523438 C198.75642478 127.61337041 201.42300314 127.61189724 204.08958435 127.61094666 C210.4042263 127.6078336 216.71885101 127.59962057 223.03348535 127.58959717 C230.22079383 127.57843522 237.40810311 127.57292537 244.5954181 127.56790173 C259.38393339 127.55743793 274.17243515 127.53983899 288.9609375 127.51757812 C296.74402276 112.80550641 296.74402276 112.80550641 304.3125 97.98242188 C304.74227142 97.12620743 305.17204285 96.26999298 305.61483765 95.38783264 C306.49765894 93.62714678 307.37948035 91.86595917 308.26025391 90.10424805 C309.61578673 87.39542913 310.97776356 84.68990657 312.33984375 81.984375 C313.20611761 80.25475179 314.07201825 78.52494159 314.9375 76.79492188 C315.34360504 75.98989731 315.74971008 75.18487274 316.16812134 74.35545349 C318.21810605 70.61913723 318.21810605 70.61913723 318.9609375 66.51757812 C259.8909375 66.51757812 200.8209375 66.51757812 139.9609375 66.51757812 Z " fill="#000000" transform="translate(39.0390625,146.482421875)"/>
<path d="M0 0 C6.18773524 5.18019282 10.65654339 11.07707927 11.5 19.30078125 C12.18711478 28.06149474 10.04775231 34.9454609 4.4375 41.67578125 C-1.53447129 47.81176468 -7.47267663 50.39243055 -16 50.80078125 C-23.20365031 50.50529913 -30.75473202 48.03350305 -36.1171875 43.0234375 C-41.59008266 36.20550878 -44.47087395 28.93533445 -43.9453125 20.18359375 C-42.55415677 11.17769088 -38.6930699 4.90437129 -31.5 -0.69921875 C-21.8147311 -6.43863736 -9.34052186 -6.34863595 0 0 Z M-25.5 16.30078125 C-27.19932147 19.23597289 -27.51645196 20.90593412 -27.375 24.30078125 C-26.32480872 27.90143707 -25.22718873 29.71712877 -22.5 32.30078125 C-18.25208426 34.22436574 -16.26207503 34.51670251 -11.75 33.23828125 C-8.23548745 31.14309108 -6.96285136 30.08698477 -5.5 26.30078125 C-5.0101933 22.93336017 -4.7509612 20.54085659 -6.5546875 17.5546875 C-8.33229781 15.36160023 -9.95585937 13.57285156 -12.5 12.30078125 C-18.29730856 11.82559202 -21.3550575 11.79010853 -25.5 16.30078125 Z " fill="#000000" transform="translate(316.5,306.69921875)"/>
<path d="M0 0 C6.94588275 7.54124413 9.55860172 14.91463116 9.46875 25.01171875 C8.85377053 32.36584828 5.43251776 38.24653819 0.1875 43.375 C-7.69751111 48.58928154 -14.37102705 50.25152932 -23.8125 49.375 C-31.92387102 47.42356871 -37.37537259 43.32111017 -42.09375 36.53125 C-45.60369292 30.4139209 -46.5514609 23.58465433 -45.3359375 16.66015625 C-42.8129396 7.44151009 -38.11456155 1.40474946 -29.75 -3.375 C-19.30011584 -7.82175922 -9.56163544 -5.52450048 0 0 Z M-27.8125 16.375 C-29.34464888 19.43929776 -29.04188548 21.9915642 -28.8125 25.375 C-27.34964864 29.16120352 -26.07701255 30.21730983 -22.5625 32.3125 C-18.05042497 33.59092126 -16.06041574 33.29858449 -11.8125 31.375 C-9.12233295 28.82642069 -7.99887184 26.9589651 -6.875 23.4375 C-6.78034141 18.79922918 -8.43829208 15.90189769 -11.5 12.5 C-18.42000884 9.13350921 -22.89853761 11.34118487 -27.8125 16.375 Z " fill="#000000" transform="translate(254.8125,307.625)"/>
</svg>
